<svg width="135" height="50" viewBox="0 0 135 50" fill="none" xmlns="http://www.w3.org/2000/svg">
<path d="M31.3318 0H5.25701C2.35364 0 0 2.33185 0 5.20833C0 8.08482 2.35364 10.4167 5.25701 10.4167H31.3318C34.2351 10.4167 36.5888 8.08482 36.5888 5.20833C36.5888 2.33185 34.2351 0 31.3318 0Z" fill="#342C00"/>
<path d="M31.1215 14.5833H5.46729C2.44779 14.5833 0 17.0085 0 20C0 22.9916 2.44779 25.4167 5.46729 25.4167H31.1215C34.141 25.4167 36.5888 22.9916 36.5888 20C36.5888 17.0085 34.141 14.5833 31.1215 14.5833Z" fill="#9C6343"/>
<path d="M31.3318 29.5833H5.25701C2.35364 29.5833 0 31.9152 0 34.7917C0 37.6681 2.35364 40 5.25701 40H31.3318C34.2351 40 36.5888 37.6681 36.5888 34.7917C36.5888 31.9152 34.2351 29.5833 31.3318 29.5833Z" fill="#342C00"/>
<path d="M69.2479 12V40H62.6669L50.1914 25.08V40H42.3589V12H48.9398L61.4153 26.92V12H69.2479ZM93.822 34.56H81.8714L79.6508 40H71.4953L83.9708 12H91.8437L104.36 40H96.0426L93.822 34.56ZM91.4804 28.72L87.8467 19.76L84.2131 28.72H91.4804ZM117.527 29.84L114.539 33V40H106.626V12H114.539V23.64L125.481 12H134.282L122.735 24.4L134.888 40H125.602L117.527 29.84Z" fill="black"/>
<path d="M5.25702 23.75C7.46357 23.75 9.25234 22.0711 9.25234 20C9.25234 17.9289 7.46357 16.25 5.25702 16.25C3.05046 16.25 1.26169 17.9289 1.26169 20C1.26169 22.0711 3.05046 23.75 5.25702 23.75Z" fill="#E6CE4D"/>
</svg>
