<svg width="512" height="453" viewBox="0 0 512 453" fill="none" xmlns="http://www.w3.org/2000/svg">
<path d="M474.644 44.434C449.391 15.78 414.358 0 376 0C322.052 0 287.897 32.22 268.745 59.25C263.776 66.264 259.549 73.297 256 79.915C252.451 73.297 248.225 66.264 243.255 59.25C224.103 32.22 189.948 0 136 0C97.642 0 62.609 15.781 37.355 44.435C13.267 71.769 0 108.377 0 147.515C0 190.118 16.633 229.743 52.345 272.215C84.262 310.175 130.179 349.303 183.35 394.612C203.163 411.496 223.652 428.956 245.465 448.041L246.12 448.615C248.948 451.091 252.474 452.328 256 452.328C259.526 452.328 263.052 451.09 265.88 448.615L266.535 448.041C288.348 428.956 308.837 411.497 328.653 394.61C381.821 349.304 427.738 310.176 459.655 272.215C495.367 229.742 512 190.118 512 147.515C512 108.377 498.733 71.769 474.644 44.434ZM309.193 371.778C292.113 386.332 274.535 401.311 256 417.424C237.466 401.313 219.887 386.333 202.804 371.776C98.745 283.103 30 224.522 30 147.515C30 115.685 40.605 86.121 59.862 64.27C79.34 42.171 106.379 30 136 30C177.129 30 203.716 55.338 218.776 76.594C232.285 95.658 239.334 114.876 241.738 122.253C243.749 128.428 249.506 132.607 256 132.607C262.494 132.607 268.251 128.428 270.262 122.253C272.666 114.876 279.715 95.658 293.224 76.593C308.284 55.338 334.871 30 376 30C405.621 30 432.66 42.171 452.137 64.27C471.395 86.121 482 115.685 482 147.515C482 224.522 413.255 283.103 309.193 371.778Z" fill="white"/>
</svg>
